# xmcd CD database file
#
# Track frame offsets:
#	150
#	5503
#	19980
#	37448
#	52388
#	74418
#	92130
#	111328
#	124630
#	133708
#	139145
#	163418
#	180045
#	191228
#	203160
#	218160
#	237328
#
# Disc length: 3360 seconds
#
# Revision: 0
# Processed by: cddbd v1.5.1PL0 Copyright (c) Steve Scherf et al.
# Submitted via: CDex 1.51
#
DISCID=0b0d1e11
DTITLE=Colemann and Erskine Hawkins and their orchestras - Stompi at the Savoy
DYEAR=1990
DGENRE=Jazz
TTITLE0=Tuxedo Junction
TTITLE1=I'll Be Faithful
TTITLE2=Whispering Grass
TTITLE3=Gin Mill Blues
TTITLE4=Junction Blues
TTITLE5=Gabriel MeetsThe Duke
TTITLE6=Leanin' On The Old Top Rail
TTITLE7=Midnight Stroll
TTITLE8=Tuxedo Junction
TTITLE9=Body And Soul
TTITLE10=Chant Of The Grove
TTITLE11=Forgive A Fool
TTITLE12=Asleep In The Deep
TTITLE13=Can't Get Indiana Off My Mindv
TTITLE14=Passin' It Around
TTITLE15=When A Congressman Meets A Senator Down South
TTITLE16=I Can't Believe That You're In Love With Me
EXTD=YEAR: 1990
EXTT0=
EXTT1=
EXTT2=
EXTT3=
EXTT4=
EXTT5=
EXTT6=
EXTT7=
EXTT8=
EXTT9=
EXTT10=
EXTT11=
EXTT12=
EXTT13=
EXTT14=
EXTT15=
EXTT16=
PLAYORDER=
